<?xml version="1.0" encoding="UTF-8"?>
<svg width="48px" height="48px" viewBox="0 0 48 48" version="1.1" xmlns="http://www.w3.org/2000/svg" xmlns:xlink="http://www.w3.org/1999/xlink">
    <!-- Generator: Sketch 50.2 (55047) - http://www.bohemiancoding.com/sketch -->
    <title>Quora_white</title>
    <desc>Created with Sketch.</desc>
    <defs></defs>
    <g id="Quora_white" stroke="none" stroke-width="1" fill="none" fill-rule="evenodd">
        <g id="Quora" fill="#FFFFFF" fill-rule="nonzero">
            <path d="M0,24 C0,10.7451654 10.7451654,0 24,0 C37.2548346,0 48,10.7451654 48,24 C48,37.2548346 37.2548346,48 24,48 C10.7451654,48 0,37.2548346 0,24 Z M26.0301252,35.0459139 L26.026431,35.047761 C27.3194143,37.2643041 29.0464708,39.1557541 32.3066362,39.1557541 C37.6946828,39.1557541 38.2913023,34.1925449 38.1804752,32.9974587 L36.2520827,32.9974587 C36.1523383,33.8951586 35.5538717,35.0366783 34.0761763,35.0366783 C32.7203909,35.0366783 31.7451119,34.0946475 30.8030811,32.6779071 C33.730765,30.4096447 35.744125,26.9019654 35.744125,22.5852479 C35.744125,14.823653 29.3530926,9.6 22.6480499,9.6 C16.0538344,9.6 9.6,14.8642897 9.6,22.5852479 C9.6,30.2360155 16.0556815,35.496611 22.649897,35.496611 C23.7914167,35.496611 24.9440191,35.3359116 26.0301252,35.0459139 Z" id="Combined-Shape"></path>
            <path d="M24.8017909,32.644659 C23.7784869,30.631299 22.5778594,28.5939266 20.2338651,28.5939266 C19.7868623,28.5939266 19.3380123,28.6678114 18.9279519,28.8525233 L18.1336906,27.2640008 C19.1015811,26.4291029 20.6697853,25.7678342 22.6849923,25.7678342 C25.8195536,25.7678342 27.4283944,27.282472 28.7066009,29.2071702 C29.4639198,27.5632341 29.8222609,25.3393026 29.8222609,22.5852479 C29.8222609,15.706576 27.6722142,12.1748842 22.6480499,12.1748842 C17.6977705,12.1748842 15.5551122,15.706576 15.5551122,22.5852479 C15.5551122,29.4269774 17.6977705,32.9217269 22.6480499,32.9217269 C23.4349227,32.9217269 24.1479107,32.8367594 24.8017909,32.644659 Z" id="Shape"></path>
        </g>
    </g>
</svg>