<?xml version="1.0" encoding="UTF-8"?>
<svg width="48px" height="48px" viewBox="0 0 48 48" version="1.1" xmlns="http://www.w3.org/2000/svg" xmlns:xlink="http://www.w3.org/1999/xlink">
    <!-- Generator: Sketch 50.2 (55047) - http://www.bohemiancoding.com/sketch -->
    <title>Reddit_white</title>
    <desc>Created with Sketch.</desc>
    <defs></defs>
    <g id="Reddit_white" stroke="none" stroke-width="1" fill="none" fill-rule="evenodd">
        <g id="Reddit" fill="#FFFFFF" fill-rule="nonzero">
            <path d="M24,48 C10.745166,48 0,37.254834 0,24 C0,10.745166 10.745166,0 24,0 C37.254834,0 48,10.745166 48,24 C48,37.254834 37.254834,48 24,48 Z M41.6,23.6874811 C41.6,21.4924541 39.8065091,19.7064649 37.6013909,19.7064649 C36.5928454,19.7064649 35.6726454,20.0835892 34.9686182,20.6992865 C32.4632818,19.0969946 29.1511091,18.0543567 25.4832091,17.871827 L27.4119546,11.8024216 L32.6743727,13.0361514 C32.7334,14.8042378 34.1926636,16.2259459 35.9834182,16.2259459 C37.8109182,16.2259459 39.2979364,14.7458594 39.2979364,12.9260108 C39.2979364,11.1061622 37.8105273,9.62607568 35.9834182,9.62607568 C34.6558909,9.62607568 33.5117,10.4087351 32.9824091,11.5327135 L27.0691273,10.1475892 C26.6774364,10.0561298 26.2794909,10.2806919 26.1594818,10.6628757 L23.8761818,17.8480865 C19.971,17.9243676 16.4281909,18.9744 13.7731364,20.6467459 C13.0769273,20.0614054 12.1782273,19.7064649 11.1986091,19.7064649 C8.99349088,19.7068541 7.2,21.4924541 7.2,23.6874811 C7.2,25.0850594 7.92865454,26.3137298 9.02554544,27.0236108 C8.96964544,27.3801081 8.93954544,27.7412757 8.93954544,28.1067243 C8.93954544,33.7674811 15.843,38.3731459 24.3296364,38.3731459 C32.8154909,38.3731459 39.7197273,33.7674811 39.7197273,28.1067243 C39.7197273,27.7677406 39.6939273,27.4326486 39.6458454,27.1010594 C40.8127091,26.4067459 41.6,25.1387676 41.6,23.6874811 Z" id="Combined-Shape"></path>
            <path d="M39.2240546,25.520173 C38.6615364,24.078227 37.6373546,22.7592649 36.2664364,21.6356757 C36.6510909,21.3862054 37.1092364,21.2398702 37.6017818,21.2398702 C38.9574546,21.2398702 40.0602091,22.337773 40.0602091,23.6874811 C40.0594273,24.4172108 39.7349727,25.071827 39.2240546,25.520173 Z" id="Shape"></path>
            <path d="M35.9834182,11.1602594 C36.9618636,11.1602594 37.7577546,11.9530378 37.7577546,12.9271784 C37.7577546,13.9013189 36.9618636,14.6937081 35.9834182,14.6937081 C35.0045818,14.6937081 34.2086909,13.9013189 34.2086909,12.9271784 C34.2086909,11.9530378 35.0045818,11.1602594 35.9834182,11.1602594 Z" id="Shape"></path>
            <path d="M38.1795454,28.1075027 C38.1795454,32.9221622 31.9656546,36.8401298 24.3296364,36.8401298 C16.6924454,36.8401298 10.4797273,32.9225514 10.4797273,28.1075027 C10.4797273,27.9378162 10.4891091,27.7704649 10.5039636,27.6035027 C10.5504818,27.0917189 10.6693182,26.5912216 10.8503091,26.1062919 C11.3197909,24.8492108 12.2204454,23.6956541 13.4506364,22.712173 C13.8442818,22.3973189 14.2707636,22.0999784 14.7273454,21.8224865 C17.2193909,20.3081514 20.6038818,19.3740973 24.3296364,19.3740973 C28.1093364,19.3740973 31.5395636,20.3346162 34.0398182,21.8878702 C34.4975727,22.1715892 34.9228818,22.4759351 35.3145727,22.7977946 C36.4959,23.7664865 37.3594182,24.8959135 37.8148273,26.1238054 C37.9942546,26.6102919 38.1130909,27.1111784 38.1576546,27.6241298 C38.1713364,27.7848649 38.1795454,27.9452108 38.1795454,28.1075027 Z M21.6171182,26.2615784 C21.6171182,24.9686919 20.5640091,23.8840216 19.2650182,23.8840216 C17.9664182,23.8840216 16.8773454,24.9686919 16.8773454,26.2615784 C16.8773454,27.5540757 17.9668091,28.6037189 19.2650182,28.6037189 C20.5640091,28.6021622 21.6171182,27.5540757 21.6171182,26.2615784 Z M29.5705546,23.8832433 C28.2719546,23.8832433 27.1793636,24.9675243 27.1793636,26.2604108 C27.1793636,27.5536865 28.2719546,28.6025514 29.5705546,28.6025514 C30.8695454,28.6025514 31.9234364,27.5544649 31.9234364,26.2604108 C31.9226546,24.9667459 30.8695454,23.8832433 29.5705546,23.8832433 Z M28.9060091,31.9379027 C28.0346727,32.8042378 26.5675909,33.2249514 24.4179818,33.2249514 C24.4113364,33.2249514 24.4054727,33.2268973 24.3992182,33.2268973 C24.3925727,33.2268973 24.3871,33.2249514 24.3808454,33.2249514 C22.2308454,33.2249514 20.7633727,32.8042378 19.8932091,31.9379027 C19.5926,31.638227 19.1047454,31.638227 18.8041364,31.9379027 C18.5031364,32.2379676 18.5031364,32.7232865 18.8041364,33.0217946 C19.9772546,34.1901406 21.8016273,34.7587459 24.3808454,34.7587459 C24.3874909,34.7587459 24.3929636,34.7564108 24.3992182,34.7564108 C24.4054727,34.7564108 24.4113364,34.7587459 24.4179818,34.7587459 C26.9968091,34.7587459 28.8215727,34.1901406 29.9958636,33.022573 C30.2972546,32.7225081 30.2972546,32.2375784 29.9966454,31.9386811 C29.6952546,31.6390054 29.2074,31.6390054 28.9060091,31.9379027 Z" id="Combined-Shape"></path>
            <path d="M8.74018184,23.6874811 C8.74018184,22.3381622 9.8429364,21.2398702 11.1982182,21.2398702 C11.6559727,21.2398702 12.0836273,21.3679135 12.4514727,21.5862486 C11.0797727,22.695827 10.0532454,24.0015567 9.47430912,25.4287135 C9.02124544,24.9846486 8.74018184,24.3685622 8.74018184,23.6874811 Z" id="Shape"></path>
        </g>
    </g>
</svg>