<?xml version="1.0" encoding="UTF-8"?>
<svg width="48px" height="48px" viewBox="0 0 48 48" version="1.1" xmlns="http://www.w3.org/2000/svg" xmlns:xlink="http://www.w3.org/1999/xlink">
    <!-- Generator: Sketch 50.2 (55047) - http://www.bohemiancoding.com/sketch -->
    <title>World_white</title>
    <desc>Created with Sketch.</desc>
    <defs></defs>
    <g id="World_white" stroke="none" stroke-width="1" fill="none" fill-rule="evenodd">
        <g id="World" fill="#FFFFFF" fill-rule="nonzero">
            <path d="M48,24 C48,37.254834 37.254834,48 24,48 C10.745166,48 1.623249e-15,37.254834 0,24 C-1.623249e-15,10.745166 10.745166,2.4348735e-15 24,0 C37.254834,-2.4348735e-15 48,10.745166 48,24 Z M23.9994918,9.6 C16.060307,9.6 9.6,16.0592906 9.6,23.9994918 C9.6,31.939693 16.060307,38.3989836 23.9994918,38.3989836 C31.939693,38.3989836 38.4,31.9407094 38.4,23.9994918 C38.4,16.0592906 31.939693,9.6 23.9994918,9.6 Z" id="Combined-Shape"></path>
            <path d="M11.183568,26.9226893 C11.2476019,26.9389518 11.3390789,26.9857067 11.468163,27.1005611 C11.6551826,27.2631869 11.7659714,27.3465326 12.0139757,27.4471572 C12.2609634,27.5477819 12.3605718,27.694145 12.6583801,27.8435574 C12.9561885,27.9929698 12.8575966,27.894378 13.2529804,28.3395659 C13.650397,28.7847538 13.6005929,28.7847538 13.6991847,29.0337745 C13.7977766,29.2827951 13.947189,29.5287666 14.0467973,29.6791954 C14.1464055,29.8275913 14.4431974,29.9261832 14.5915934,30.0257914 C14.7399894,30.1253997 14.9879937,30.2239915 15.1363896,30.2239915 C15.285802,30.2239915 15.7320063,30.6701958 15.9800106,30.7189836 C16.2280148,30.7698042 16.2280148,31.2658126 16.2280148,31.2658126 L15.9800106,31.9590048 L15.7807941,32.702001 L15.9800106,33.2966014 C15.9800106,33.2966014 15.6811858,33.545622 15.4850186,33.545622 C15.3020646,33.545622 15.2400635,33.6614929 15.0398306,33.6066066 C13.1493065,31.8411011 11.7781683,29.5318158 11.183568,26.9226893 Z M33.1837798,29.876379 C33.1837798,30.024775 33.1339757,30.4221916 33.0841715,30.6203918 C33.0323346,30.8185918 32.9347591,31.1662043 32.8859714,31.3623716 C32.8361673,31.5615882 32.588163,31.9579883 32.4407835,32.0575966 C32.2923875,32.1572049 32.0433669,32.4550132 31.8959873,32.503801 C31.7475913,32.5536051 31.6469666,32.1561885 31.6967708,31.9579883 C31.7475913,31.7597882 31.9945791,31.2149921 31.9945791,31.2149921 C31.9945791,31.2149921 32.0443833,30.9182001 32.093171,30.7189836 C32.1439915,30.5217999 32.7385918,30.2737957 32.7385918,30.2737957 L33.1360085,29.529783 C33.1339757,29.5287666 33.1837798,29.7289994 33.1837798,29.876379 Z M27.4827316,20.1584754 C27.5986024,20.0669984 27.9777237,20.3068714 27.9777237,20.3068714 C27.9777237,20.3068714 29.2167284,20.5548756 29.4149286,20.7032716 C29.614145,20.8526839 29.9607411,20.9522922 30.0603494,21.1017046 C30.1599577,21.2501006 30.5055374,21.696305 30.554325,21.8447009 C30.6051456,21.9930969 30.8531498,22.5399259 30.9029539,22.7371096 C30.9527581,22.9353097 31.1011541,23.4313182 31.24955,23.6793224 C31.397946,23.928343 32.241567,25.0179354 32.538359,25.5139439 L33.4328004,25.3655479 C33.4328004,25.3655479 33.3321758,25.8107358 33.2335839,25.9601482 C33.1349921,26.1085442 32.8371837,26.5049444 32.6887877,26.7031446 C32.5393754,26.9013446 32.3421916,27.199153 32.0443833,27.4461408 C31.7475913,27.6931286 31.7455585,27.9411329 31.598179,28.1403494 C31.449783,28.3385495 31.2505664,28.7847538 31.2505664,28.7847538 C31.2505664,28.7847538 31.3501747,29.7767708 31.3989624,29.9749709 C31.4477502,30.173171 31.0523663,30.7179672 31.0523663,30.7179672 L30.6051456,31.1651879 L30.007496,31.9569719 L30.0562838,32.6999682 C30.0562838,32.6999682 29.6049974,33.0485971 29.3559767,33.2457808 C29.1100053,33.4429646 29.1486289,33.5923769 28.9504288,33.7915934 C28.7532451,33.9887771 27.9777237,34.3363896 27.7795235,34.3861938 C27.5813234,34.4359979 26.4876654,34.5843938 26.4876654,34.5843938 L26.4876654,34.1392059 L26.4653044,33.6431974 C26.4653044,33.6431974 26.3148756,33.0485971 26.1654632,32.850397 C26.0160508,32.652197 26.0811011,32.3533722 25.8330969,32.1063843 C25.5850926,31.8583801 25.4936157,31.6611964 25.4438115,31.5107676 C25.3940074,31.3623716 25.4976813,30.9171837 25.4976813,30.9171837 C25.4976813,30.9171837 25.6979142,30.3713711 25.7965061,30.173171 C25.8961143,29.9749709 25.7975225,29.678179 25.6979142,29.4789624 C25.598306,29.2797459 25.5505346,28.7837374 25.5505346,28.6363578 C25.5505346,28.4879619 25.1521017,28.2389412 25.0037057,28.0905453 C24.8553097,27.9421493 24.9051138,27.7429328 24.9051138,27.5467655 C24.9051138,27.3465326 24.7567178,26.9013446 24.8055055,26.5537322 C24.8553097,26.2071361 24.3603176,26.4541238 24.0625093,26.5537322 C23.7647009,26.6533404 23.5675172,26.4541238 23.5675172,26.1563155 C23.5675172,25.8585071 23.022721,26.1075278 22.6751086,26.3047115 C22.3264796,26.5029116 21.9310958,26.5029116 21.5326628,26.652324 C21.137279,26.8007199 20.9400953,26.503928 20.9400953,26.503928 C20.9400953,26.503928 20.5914664,26.2071361 20.345495,26.0577237 C20.0964743,25.9093277 19.8484701,25.6125358 19.6492536,25.3645315 C19.4520698,25.1155109 18.955045,24.3714982 18.9072737,24.0757226 C18.8574696,23.7768978 18.9072737,23.5776813 18.9072737,23.2310852 C18.9072737,22.8844891 18.9072737,22.686289 18.9560614,22.4382848 C19.0058655,22.1902806 19.1542615,21.8924722 19.3036739,21.644468 C19.4520698,21.3964638 19.9978825,21.0996718 20.1452621,21.0000635 C20.293658,20.9014717 20.6412705,20.6046798 20.6412705,20.4054632 C20.6412705,20.2072631 20.840487,20.1086713 20.9380625,19.9094547 C21.0386871,19.7112546 21.3852832,19.2162626 21.8314875,19.4144626 C21.8314875,19.4144626 22.2268714,19.365675 22.3752674,19.3158708 C22.5236633,19.2660667 22.9200635,19.1186871 23.1162308,19.0190789 C23.3144309,18.9194706 23.8084066,18.8727158 23.8084066,18.8727158 C23.8084066,18.8727158 24.1987083,19.0282266 24.3471043,19.0282266 C24.4955002,19.0282266 24.9793118,18.9418317 24.9793118,18.9418317 C24.9793118,18.9418317 25.2029222,19.6604341 25.2029222,19.8098465 C25.2029222,19.9592589 25.3513182,20.1066384 25.6003388,20.2062467 C25.8452938,20.3068714 26.9867231,20.555892 27.4827316,20.1584754 Z M21.0366543,15.4982318 L20.8394706,15.2014399 L21.0366543,14.7552356 L21.5143674,14.9463208 L21.5143674,14.061027 L21.9707358,13.8140392 L22.349857,14.3588354 L22.9332769,15.0042562 L22.5460243,15.3010482 L21.513351,15.4992482 L21.513351,14.9737639 L21.0366543,15.4982318 Z M15.0947168,14.3415564 C16.3072949,13.2224881 17.7282372,12.3300794 19.2955426,11.7263314 C19.1410482,11.9245315 18.9540286,12.1278137 18.9540286,12.1278137 C18.9540286,12.1278137 18.6074325,12.1267973 17.9620117,12.8220222 C17.3186236,13.5162308 17.4670196,13.3180307 17.3186236,13.5152144 C17.1702276,13.7123981 17.2190154,13.7632186 16.8714029,14.0122393 C16.5258232,14.2592271 16.3764108,14.5570354 16.3764108,14.5570354 L15.8305982,14.7552356 L15.3854102,14.5570354 C15.3854102,14.5570354 14.9869772,14.7064478 15.0367814,14.5072314 C15.0510111,14.454378 15.0723558,14.3994918 15.0947168,14.3415564 Z M13.502001,16.2422446 C13.502001,16.4404446 13.2316358,16.488216 13.502001,16.9862573 C13.8475807,17.6306618 13.5507888,17.9284701 13.5507888,17.9284701 C13.5507888,17.9284701 12.7071678,18.5230704 12.5587718,18.6226786 C12.4103758,18.722287 12.0139757,19.2670831 12.2609634,19.1176707 C12.5089677,18.9692747 12.8057597,18.8208788 12.5587718,19.217279 C12.3107676,19.6146956 11.8645633,20.2580837 11.7659714,20.5071043 C11.6673796,20.756125 11.1713711,21.3497089 11.1713711,21.6475172 C11.1713711,21.9453256 10.973171,22.5409423 11.0229751,22.7889466 C11.0565166,22.9617364 10.9467443,23.4709582 10.8603494,23.6803388 C10.9274325,20.8933404 11.8655797,18.3248703 13.4145898,16.2239492 C13.4654102,16.2290312 13.502001,16.2422446 13.502001,16.2422446 Z M37.1548968,23.9994918 C37.1548968,24.2515617 37.1325358,24.4975331 37.1172896,24.7465538 C37.0247962,24.5127793 36.8845315,24.207856 36.8509899,24.076739 C36.8022022,23.8775225 36.5043938,23.1833139 36.5043938,23.1833139 C36.5043938,23.1833139 36.2065855,22.7869137 36.0083854,22.6873054 C35.8112017,22.5876972 35.6617893,22.339693 35.3141768,22.1425093 C34.9665643,21.9432927 34.8191847,21.8447009 34.5223928,21.8447009 C34.223568,21.8447009 33.9277925,21.4472842 33.5791636,21.2490842 C33.2315511,21.0519005 33.1827634,21.1504923 33.1827634,21.1504923 C33.1827634,21.1504923 33.5791636,21.7450926 33.5791636,21.8934886 C33.5791636,22.0418846 34.0243515,22.2898888 34.4725886,22.1902806 C34.4725886,22.1902806 34.7693806,22.7360932 34.9177766,22.8844891 C35.0661726,23.0328851 34.8679725,23.1822975 34.5711805,23.3804976 C34.2733722,23.5776813 34.3231763,23.5288936 34.1727475,23.6772896 C34.0243515,23.8256855 33.5293594,24.0757226 33.379947,24.1732981 C33.2315511,24.2718899 32.6369508,24.5696982 32.3401588,24.2718899 C32.1948121,24.128576 32.2395342,23.8267019 32.1419587,23.6274854 C32.0423505,23.4292854 31.0015458,21.8924722 30.5055374,21.1992801 C30.4191424,21.0773107 30.207729,20.7012387 30.0603494,20.6046798 C29.9119534,20.504055 30.4079619,20.504055 30.4079619,20.504055 C30.4079619,20.504055 30.4079619,20.1564426 30.3581578,19.9094547 C30.3073372,19.6614505 30.4079619,19.3148544 30.4079619,19.3148544 C30.4079619,19.3148544 29.9119534,19.6116464 29.7615246,19.7112546 C29.614145,19.8108629 29.4647326,19.514071 29.267549,19.2650503 C29.0693489,19.0180625 28.8701323,18.7192377 28.8213446,18.4712334 C28.7715405,18.2242456 29.0693489,18.1246374 29.0693489,18.1246374 L29.5145368,17.8776495 C29.5145368,17.8776495 30.0603494,17.7790577 30.4079619,17.8278454 C30.754558,17.8776495 31.2993542,17.9274537 31.2993542,17.9274537 C31.2993542,17.9274537 31.4477502,17.5798412 31.24955,17.4314452 C31.0523663,17.2830492 30.6041292,17.035045 30.405929,17.0848491 C30.2087454,17.1336369 30.5045209,16.8368449 30.7515087,16.6386448 L30.2026469,16.5390366 C30.2026469,16.5390366 29.7035892,16.7870408 29.5541768,16.8368449 C29.4057808,16.8856326 29.1476125,16.9852409 28.948396,17.2332451 C28.7512123,17.4812494 29.027676,17.8278454 28.8294759,17.9274537 C28.6322922,18.0270619 28.498126,18.0758497 28.3487136,18.1246374 C28.2003176,18.1744415 27.728703,18.1246374 27.728703,18.1246374 C27.216432,18.1246374 27.5447326,18.5921863 27.6778825,18.7578613 L27.2814822,18.2740498 L26.9877395,17.5808576 C26.9877395,17.5808576 26.5649126,17.2840657 26.3667126,17.1854738 C26.1685125,17.0858655 25.5576495,16.7392694 25.5576495,16.7392694 L25.6003388,17.1854738 L26.1746109,17.7668608 L26.2254314,17.7800741 L26.5242562,18.1764743 L25.8646056,18.2262785 L25.8646056,17.8339439 C25.2425622,17.6835151 25.4051879,17.5290206 25.3350556,17.4812494 C25.187676,17.3826575 24.8431127,17.1336369 24.8431127,17.1336369 C24.8431127,17.1336369 24.259693,17.2332451 24.1102806,17.2830492 C23.9608682,17.3328534 23.9191954,17.4812494 23.6234198,17.5798412 C23.324595,17.6794494 23.1904288,17.8278454 23.091837,17.9762414 C22.9932451,18.1246374 22.6700265,18.5708417 22.4738592,18.7690418 C22.2746426,18.9682583 21.9067019,18.9174378 21.758306,18.9174378 C21.6088936,18.9174378 20.8933404,18.7192377 20.8933404,18.7192377 L20.8933404,17.878666 C20.8933404,17.878666 20.9898994,17.4070514 20.9411117,17.2586554 L21.3751191,17.1854738 L22.09982,17.0360614 L22.3122498,16.886649 L22.6171731,16.4902488 C22.6171731,16.4902488 22.2746426,16.2422446 22.5216305,15.8956485 C22.6405506,15.7289571 23.0684595,15.6974484 23.2666596,15.5490524 C23.4638433,15.4006564 23.7636845,15.3010482 23.7636845,15.3010482 C23.7636845,15.3010482 24.111297,15.0042562 24.457893,14.6566438 C24.457893,14.6566438 24.7058973,14.5072314 25.0026893,14.4076231 C25.0026893,14.4076231 25.8463102,15.1516358 25.9957226,15.1516358 C26.145135,15.1516358 26.6899312,14.8050397 26.6899312,14.8050397 C26.6899312,14.8050397 26.8383271,14.3598518 26.7895394,14.2104394 C26.7397353,14.0620434 26.491731,13.566035 26.491731,13.566035 C26.491731,13.566035 26.3433351,13.8140392 26.1949391,14.0122393 C26.0465431,14.2104394 25.9469349,14.4584436 25.9469349,14.4584436 C25.9469349,14.4584436 25.2527263,14.4106723 25.2039386,14.2622763 C25.1531181,14.1128639 25.0555426,13.867909 25.0047221,13.7205294 C24.9569508,13.571117 24.5595342,13.576199 24.2637586,13.6758073 C23.9649338,13.7754156 24.3115299,13.1411752 24.3115299,13.1411752 C24.3115299,13.1411752 24.6103547,12.7671361 24.8075384,12.7671361 C25.0047221,12.7671361 25.4529592,12.5130334 25.6491266,12.4642456 C25.848343,12.4144415 26.4449762,12.1877819 26.6909476,12.1877819 C26.9389518,12.1877819 27.2367602,12.294505 27.3861726,12.294505 L28.1291689,12.294505 L29.1689571,12.2111594 C29.1689571,12.2111594 30.0623822,12.5414929 29.7635574,12.7407094 C29.7635574,12.7407094 30.1121863,12.9551721 30.2605823,13.103568 C30.3998306,13.2438327 30.75964,12.9744838 30.9659714,12.8596294 C34.6748544,15.1872102 37.1548968,19.3046903 37.1548968,23.9994918 Z" id="Combined-Shape"></path>
        </g>
    </g>
</svg>