<?xml version="1.0" standalone="no"?><svg xmlns="http://www.w3.org/2000/svg" viewBox="0 0 1440 320"><path fill="#0099ff" fill-opacity="1" d="M0,192L26.7,176C53.3,160,107,128,160,96C213.3,64,267,32,320,42.7C373.3,53,427,107,480,122.7C533.3,139,587,117,640,90.7C693.3,64,747,32,800,26.7C853.3,21,907,43,960,90.7C1013.3,139,1067,213,1120,229.3C1173.3,245,1227,203,1280,181.3C1333.3,160,1387,160,1413,160L1440,160L1440,320L1413.3,320C1386.7,320,1333,320,1280,320C1226.7,320,1173,320,1120,320C1066.7,320,1013,320,960,320C906.7,320,853,320,800,320C746.7,320,693,320,640,320C586.7,320,533,320,480,320C426.7,320,373,320,320,320C266.7,320,213,320,160,320C106.7,320,53,320,27,320L0,320Z"></path></svg>